HIERARCHY
ROOT Hips
{
  OFFSET 5.72205e-005 65.662 3.42586
  CHANNELS 6 Xposition Yposition Zposition Zrotation Xrotation Yrotation
  JOINT Chest
  {
    OFFSET 0 8.7983 -4.7612
    CHANNELS 3 Zrotation Xrotation Yrotation
    JOINT Chest2
    {
      OFFSET 0 8.0291 0.4195
      CHANNELS 3 Zrotation Xrotation Yrotation
      JOINT Chest3
      {
        OFFSET 0 9.9351 -2.2114
        CHANNELS 3 Zrotation Xrotation Yrotation
        JOINT Neck
        {
          OFFSET 0 22.3885 -0.4656
          CHANNELS 3 Zrotation Xrotation Yrotation
          JOINT Head
          {
            OFFSET -0.0001 12.643 3.4389
            CHANNELS 3 Zrotation Xrotation Yrotation
            End Site
            {
              OFFSET 0.0001 17.6655 0.5274
            }
          }
        }
        JOINT LeftCollar
        {
          OFFSET 2.2603 21.606 7.4023
          CHANNELS 3 Zrotation Xrotation Yrotation
          JOINT LeftShoulder
          {
            OFFSET 13.5163 -1.1332 -5.0146
            CHANNELS 3 Zrotation Xrotation Yrotation
            JOINT LeftElbow
            {
              OFFSET -0.0995 -28.05 -0.2431
              CHANNELS 3 Zrotation Xrotation Yrotation
              JOINT LeftWrist
              {
                OFFSET 0.0679 -23.3996 -0.1402
                CHANNELS 3 Zrotation Xrotation Yrotation
                JOINT LeftFinger1
                {
                  OFFSET 0.7932 -9.069 2.5189
                  CHANNELS 3 Zrotation Xrotation Yrotation
                  JOINT LeftFinger11
                  {
                    OFFSET -0.8272 -3.3923 0.5977
                    CHANNELS 3 Zrotation Xrotation Yrotation
                    JOINT LeftFinger12
                    {
                      OFFSET -0.5649 -2.3158 0.4082
                      CHANNELS 3 Zrotation Xrotation Yrotation
                      End Site
                      {
                        OFFSET -0.4919 -1.6479 0.2673
                      }
                    }
                  }
                }
                JOINT LeftFinger2
                {
                  OFFSET 0.9159 -9.2044 0.2193
                  CHANNELS 3 Zrotation Xrotation Yrotation
                  JOINT LeftFinger21
                  {
                    OFFSET 0.0117 -4.1944 -0.0248
                    CHANNELS 3 Zrotation Xrotation Yrotation
                    JOINT LeftFinger22
                    {
                      OFFSET 0.0071 -2.3249 -0.0142
                      CHANNELS 3 Zrotation Xrotation Yrotation
                      End Site
                      {
                        OFFSET -0.1475 -2.0882 0.0028
                      }
                    }
                  }
                }
                JOINT LeftFinger3
                {
                  OFFSET 0.6113 -8.7231 -2.0637
                  CHANNELS 3 Zrotation Xrotation Yrotation
                  JOINT LeftFinger31
                  {
                    OFFSET -0.1927 -3.8059 -0.2383
                    CHANNELS 3 Zrotation Xrotation Yrotation
                    JOINT LeftFinger32
                    {
                      OFFSET -0.1091 -2.1688 -0.1362
                      CHANNELS 3 Zrotation Xrotation Yrotation
                      End Site
                      {
                        OFFSET -0.2358 -1.9176 -0.0906
                      }
                    }
                  }
                }
                JOINT LeftFinger4
                {
                  OFFSET -0.6151 -8.0947 -3.5641
                  CHANNELS 3 Zrotation Xrotation Yrotation
                  JOINT LeftFinger41
                  {
                    OFFSET -0.4882 -2.341 -0.6462
                    CHANNELS 3 Zrotation Xrotation Yrotation
                    JOINT LeftFinger42
                    {
                      OFFSET -0.3575 -1.7167 -0.4742
                      CHANNELS 3 Zrotation Xrotation Yrotation
                      End Site
                      {
                        OFFSET -0.4187 -1.5237 -0.3496
                      }
                    }
                  }
                }
                JOINT LeftFinger0
                {
                  OFFSET -1.42 -1.8761 1.4223
                  CHANNELS 3 Zrotation Xrotation Yrotation
                  JOINT LeftFinger01
                  {
                    OFFSET -1.1471 -3.4929 2.6334
                    CHANNELS 3 Zrotation Xrotation Yrotation
                    JOINT LeftFinger02
                    {
                      OFFSET -0.823 -2.3 1.6571
                      CHANNELS 3 Zrotation Xrotation Yrotation
                      End Site
                      {
                        OFFSET -0.5822 -1.6914 1.1582
                      }
                    }
                  }
                }
              }
            }
          }
        }
        JOINT RightCollar
        {
          OFFSET -2.2603 21.606 7.4023
          CHANNELS 3 Zrotation Xrotation Yrotation
          JOINT RightShoulder
          {
            OFFSET -13.5187 -1.1334 -5.0155
            CHANNELS 3 Zrotation Xrotation Yrotation
            JOINT RightElbow
            {
              OFFSET 0.0994 -28.0499 -0.2431
              CHANNELS 3 Zrotation Xrotation Yrotation
              JOINT RightWrist
              {
                OFFSET -0.0679 -23.3996 -0.1402
                CHANNELS 3 Zrotation Xrotation Yrotation
                JOINT RightFinger1
                {
                  OFFSET -0.7932 -9.0691 2.5189
                  CHANNELS 3 Zrotation Xrotation Yrotation
                  JOINT RightFinger11
                  {
                    OFFSET 0.8272 -3.3923 0.5977
                    CHANNELS 3 Zrotation Xrotation Yrotation
                    JOINT RightFinger12
                    {
                      OFFSET 0.565 -2.3158 0.4082
                      CHANNELS 3 Zrotation Xrotation Yrotation
                      End Site
                      {
                        OFFSET 0.4919 -1.6479 0.2673
                      }
                    }
                  }
                }
                JOINT RightFinger2
                {
                  OFFSET -0.916 -9.2044 0.2193
                  CHANNELS 3 Zrotation Xrotation Yrotation
                  JOINT RightFinger21
                  {
                    OFFSET -0.0117 -4.1944 -0.0248
                    CHANNELS 3 Zrotation Xrotation Yrotation
                    JOINT RightFinger22
                    {
                      OFFSET -0.0071 -2.3249 -0.0142
                      CHANNELS 3 Zrotation Xrotation Yrotation
                      End Site
                      {
                        OFFSET 0.1475 -2.0882 0.0028
                      }
                    }
                  }
                }
                JOINT RightFinger3
                {
                  OFFSET -0.6113 -8.7231 -2.0637
                  CHANNELS 3 Zrotation Xrotation Yrotation
                  JOINT RightFinger31
                  {
                    OFFSET 0.1927 -3.8059 -0.2383
                    CHANNELS 3 Zrotation Xrotation Yrotation
                    JOINT RightFinger32
                    {
                      OFFSET 0.1091 -2.1688 -0.1362
                      CHANNELS 3 Zrotation Xrotation Yrotation
                      End Site
                      {
                        OFFSET 0.2358 -1.9176 -0.0906
                      }
                    }
                  }
                }
                JOINT RightFinger4
                {
                  OFFSET 0.6151 -8.0947 -3.564
                  CHANNELS 3 Zrotation Xrotation Yrotation
                  JOINT RightFinger41
                  {
                    OFFSET 0.4882 -2.341 -0.6462
                    CHANNELS 3 Zrotation Xrotation Yrotation
                    JOINT RightFinger42
                    {
                      OFFSET 0.3574 -1.7166 -0.4742
                      CHANNELS 3 Zrotation Xrotation Yrotation
                      End Site
                      {
                        OFFSET 0.4187 -1.5237 -0.3496
                      }
                    }
                  }
                }
                JOINT RightFinger0
                {
                  OFFSET 1.4199 -1.8761 1.4221
                  CHANNELS 3 Zrotation Xrotation Yrotation
                  JOINT RightFinger01
                  {
                    OFFSET 1.1472 -3.4929 2.6336
                    CHANNELS 3 Zrotation Xrotation Yrotation
                    JOINT RightFinger02
                    {
                      OFFSET 0.8229 -2.3 1.6571
                      CHANNELS 3 Zrotation Xrotation Yrotation
                      End Site
                      {
                        OFFSET 0.5822 -1.6914 1.1582
                      }
                    }
                  }
                }
              }
            }
          }
        }
      }
    }
  }
  JOINT RightHip
  {
    OFFSET -9.412 3.9771 -0.7758
    CHANNELS 3 Zrotation Xrotation Yrotation
    JOINT RightKnee
    {
      OFFSET -0.7531 -40.938 0
      CHANNELS 3 Zrotation Xrotation Yrotation
      JOINT RightAnkle
      {
        OFFSET 0 -40.1986 0
        CHANNELS 3 Zrotation Xrotation Yrotation
        JOINT RightToe
        {
          OFFSET 0 -4.4182 9.239
          CHANNELS 3 Zrotation Xrotation Yrotation
          End Site
          {
            OFFSET 0 0 6.1981
          }
        }
      }
    }
  }
  JOINT LeftHip
  {
    OFFSET 9.4119 3.9773 -0.7758
    CHANNELS 3 Zrotation Xrotation Yrotation
    JOINT LeftKnee
    {
      OFFSET 0.7532 -40.9383 0
      CHANNELS 3 Zrotation Xrotation Yrotation
      JOINT LeftAnkle
      {
        OFFSET 0 -40.1986 0
        CHANNELS 3 Zrotation Xrotation Yrotation
        JOINT LeftToe
        {
          OFFSET 0 -4.4182 9.239
          CHANNELS 3 Zrotation Xrotation Yrotation
          End Site
          {
            OFFSET 0 0 6.1981
          }
        }
      }
    }
  }
}
MOTION
Frames:	6
Frame Time:	0.0333333
28.7426 4.40029 -30.2122 89.9996 76.9891 179.985 2.40212 2.62895 -0.679561 4.84289 5.22686 -1.47125 4.84289 5.22687 -1.47127 6.17804e-005 50.4167 -1.54408e-005 -0.0447338 -30.0586 -0.024178 -3.81079 -8.55573 -40.8058 30.5582 -13.1384 29.7027 2.53525 -49.0209 10.419 -7.49525 -19.0223 1.12167 2.16956e-007 -3.69259e-008 -8.08866e-007 4.33912e-007 5.54567e-006 -1.61773e-006 -6.50867e-007 -5.50875e-006 2.4266e-006 2.16956e-007 -3.69259e-008 -8.08866e-007 -0.0128305 0.00233075 8.33776e-005 1.06618e-005 1.89582e-006 1.88234e-006 2.16956e-007 -3.69259e-008 -8.08866e-007 -0.0160451 0.00299579 0.000856951 6.91985e-006 1.89341e-006 -1.24562e-006 2.16956e-007 -3.69259e-008 -8.08866e-007 -0.0126106 0.00312642 0.00283292 -4.34073e-007 -1.83558e-006 1.61772e-006 2.16956e-007 -3.69259e-008 -8.08866e-007 4.33912e-007 5.54567e-006 -1.61773e-006 -6.50867e-007 -5.50875e-006 2.4266e-006 -5.89864 -1.21182 28.0024 -28.8136 -6.91121 -21.9222 -82.5273 -70.7809 -135.303 41.4659 -2.76581 14.2285 0 0 -1.59028e-015 -2.64834e-031 9.54166e-015 1.59028e-015 2.38542e-015 3.18055e-015 -0 0 0 -1.59028e-015 0.0129342 0.00231221 -8.59128e-005 6.36111e-015 3.18055e-015 -3.18055e-015 0 0 -1.59028e-015 0.016322 0.00303539 -0.00087272 -2.64834e-031 -3.18055e-015 -4.77083e-015 0 0 -1.59028e-015 0.014577 0.00367975 -0.00326438 -2.38542e-015 -3.18245e-006 -0 0 0 -1.59028e-015 -2.64834e-031 9.54166e-015 1.59028e-015 2.38542e-015 3.18055e-015 -0 4.18926 -17.621 9.55759 53.499 57.3416 -47.6424 5.51219 23.9622 -8.69517 8.20501e-008 1.07467e-006 -1.68764e-006 3.18932 -38.1203 2.80086 -2.71266 35.2731 2.02502 5.32338 4.81316 0.870557 1.34954e-005 3.71497e-006 -1.66516e-005 
28.7427 4.40084 -30.2122 89.9997 76.9891 179.985 2.40304 2.44971 -0.656138 4.84062 4.86952 -1.4165 4.8406 4.86953 -1.4165 0.000109123 50.9454 -1.88806e-005 -0.043978 -28.0642 -0.0224558 -4.73789 -8.33539 -41.7849 31.5902 -12.7557 30.0798 2.48726 -47.1217 10.4482 -7.96567 -19.6607 0.900397 -1.47745e-006 -7.05633e-007 6.92637e-007 3.97569e-016 -1.59028e-015 3.18055e-015 -3.18055e-015 1.59028e-015 -1.59028e-015 -1.47745e-006 -7.05633e-007 6.92637e-007 -0.0128482 0.00232834 8.52458e-005 -1.98785e-015 -1.59028e-015 6.36111e-015 -1.47745e-006 -7.05633e-007 6.92637e-007 -0.016062 0.00299451 0.000857977 -3.97569e-016 0 -0 -1.47745e-006 -7.05633e-007 6.92637e-007 -0.0126066 0.00312267 0.0028286 -1.32417e-031 -1.59028e-015 -4.77083e-015 -1.47745e-006 -7.05633e-007 6.92637e-007 3.97569e-016 -1.59028e-015 3.18055e-015 -3.18055e-015 1.59028e-015 -1.59028e-015 -5.62765 -1.11047 28.2371 -28.9736 -6.8129 -22.0302 -80.0191 -70.5798 -132.952 41.6437 -2.44579 14.3944 1.50874e-005 4.06122e-006 -6.4898e-006 -1.59028e-015 0 -3.18055e-015 1.59028e-015 3.18055e-015 -0 1.50874e-005 4.06122e-006 -6.4898e-006 0.0129699 0.00232294 -8.56984e-005 -3.18055e-015 -6.36111e-015 -0 1.50874e-005 4.06122e-006 -6.4898e-006 0.0163082 0.00302863 -0.000869809 -3.97569e-015 6.36111e-015 6.36111e-015 1.50874e-005 4.06122e-006 -6.4898e-006 0.0145763 0.00367902 -0.00325937 -0 0 3.18055e-015 1.50874e-005 4.06122e-006 -6.4898e-006 -1.59028e-015 0 -3.18055e-015 1.59028e-015 3.18055e-015 -0 3.7815 -17.4998 8.9062 53.4836 57.3361 -47.6402 4.85511 24.0795 -8.08687 -6.95746e-016 1.59028e-015 1.59028e-015 3.18947 -38.1227 2.8008 -2.71239 35.2754 2.02511 5.32302 4.81328 0.870502 1.53694e-005 -2.07604e-005 1.77306e-005 
28.7428 4.40134 -30.2123 89.9997 76.9891 179.985 2.40387 2.28898 -0.635113 4.83873 4.54912 -1.36745 4.83873 4.54912 -1.36744 4.42132e-005 51.4195 -1.01056e-005 -0.0433716 -26.2671 -0.0209663 -5.56708 -8.12317 -42.6606 32.5126 -12.4058 30.4114 2.44938 -45.4121 10.4808 -8.39179 -20.2319 0.695982 6.52752e-007 1.96044e-007 -2.425e-006 -3.18055e-015 6.36111e-015 -1.59028e-015 -3.97569e-015 4.77083e-015 -3.18055e-015 6.52752e-007 1.96044e-007 -2.425e-006 -0.0128206 0.00232594 8.44568e-005 -1.08827e-006 -1.85701e-006 4.04162e-006 6.52752e-007 1.96044e-007 -2.425e-006 -0.0160499 0.00299812 0.000854516 -3.97569e-015 1.59028e-015 -1.59028e-015 6.52752e-007 1.96044e-007 -2.425e-006 -0.0125635 0.00311387 0.00282464 -7.55382e-015 -1.59028e-015 1.59028e-015 6.52752e-007 1.96044e-007 -2.425e-006 -3.18055e-015 6.36111e-015 -1.59028e-015 -3.97569e-015 4.77083e-015 -3.18055e-015 -5.38509 -1.01867 28.4471 -29.1164 -6.72474 -22.1264 -77.8157 -70.3692 -130.889 41.8022 -2.15828 14.5424 -6.11925e-007 1.26219e-006 -1.5232e-006 6.11925e-007 -1.26219e-006 1.5232e-006 -6.36111e-015 0 -4.77083e-015 -6.11925e-007 1.26219e-006 -1.5232e-006 0.0129622 0.00231473 -8.25636e-005 1.06871e-005 3.85723e-006 -1.50228e-006 -6.11925e-007 1.26219e-006 -1.5232e-006 0.0163413 0.00304026 -0.00087448 -3.53113e-031 6.36111e-015 3.18055e-015 -6.11925e-007 1.26219e-006 -1.5232e-006 0.0145354 0.00367126 -0.00325159 7.15625e-015 0 -4.77083e-015 -6.11925e-007 1.26219e-006 -1.5232e-006 6.11925e-007 -1.26219e-006 1.5232e-006 -6.36111e-015 0 -4.77083e-015 3.41703 -17.3871 8.32301 53.4694 57.331 -47.6377 4.2642 24.179 -7.53954 1.28947e-005 -8.98189e-007 -4.11131e-008 3.18959 -38.1249 2.8007 -2.71213 35.2776 2.02521 5.3227 4.81331 0.870463 1.46545e-005 -5.42646e-006 1.09526e-005 
28.7429 4.40183 -30.2123 89.9996 76.9891 179.985 2.40466 2.1282 -0.614077 4.83696 4.22859 -1.31838 4.83696 4.22862 -1.31839 6.4721e-005 51.8937 -1.94619e-005 -0.0427908 -24.4632 -0.0195007 -6.39363 -7.89804 -43.5339 33.4328 -12.0503 30.7371 2.41095 -43.6966 10.5141 -8.8219 -20.8019 0.486136 1.0054e-005 3.25428e-006 1.54786e-006 2.38542e-015 0 -1.59028e-015 5.56597e-015 3.18055e-015 -4.77083e-015 1.0054e-005 3.25428e-006 1.54786e-006 -0.0128128 0.00232021 8.20055e-005 -4.35949e-007 -1.96876e-006 1.61619e-006 1.0054e-005 3.25428e-006 1.54786e-006 -0.0160597 0.00299065 0.000860551 1.91813e-006 1.12515e-006 -2.30069e-006 1.0054e-005 3.25428e-006 1.54786e-006 -0.0125783 0.0031131 0.00282728 1.19271e-015 -1.76322e-006 -1.59028e-015 1.0054e-005 3.25428e-006 1.54786e-006 2.38542e-015 0 -1.59028e-015 5.56597e-015 3.18055e-015 -4.77083e-015 -5.14275 -0.925865 28.6568 -29.259 -6.63639 -22.2224 -75.6583 -70.1326 -128.872 41.96 -1.8703 14.6895 1.59028e-015 -9.54166e-015 3.18055e-015 -7.10159e-006 -4.21485e-007 2.80266e-006 -2.38542e-015 -3.18055e-015 1.59028e-015 1.59028e-015 -9.54166e-015 3.18055e-015 0.0129417 0.00231447 -8.22415e-005 -1.59028e-015 -3.18055e-015 -1.59028e-015 1.59028e-015 -9.54166e-015 3.18055e-015 0.0163739 0.00304747 -0.000873004 -7.15625e-015 3.18055e-015 4.77083e-015 1.59028e-015 -9.54166e-015 3.18055e-015 0.0145752 0.00367706 -0.00325941 -1.45152e-005 -2.19938e-006 4.59724e-006 1.59028e-015 -9.54166e-015 3.18055e-015 -7.10159e-006 -4.21485e-007 2.80266e-006 -2.38542e-015 -3.18055e-015 1.59028e-015 3.05391 -17.2672 7.74064 53.4502 57.3239 -47.6297 3.67163 24.2733 -6.99055 9.90995e-006 -7.79853e-007 -1.00735e-006 3.18974 -38.1272 2.80066 -2.71188 35.2799 2.02531 5.32233 4.81325 0.870449 6.48338e-006 5.96741e-006 -8.5533e-006 
28.743 4.40233 -30.2124 89.9997 76.9891 179.985 2.40541 1.96741 -0.593078 4.83533 3.90805 -1.26936 4.8353 3.90806 -1.26934 0.000116371 52.3681 -4.1542e-005 -0.0422728 -22.6535 -0.0180775 -7.21719 -7.66011 -44.4044 34.3507 -11.6895 31.0569 2.37157 -41.9761 10.5477 -9.25607 -21.3706 0.270811 -3.97569e-016 4.77083e-015 -1.59028e-015 5.29669e-031 6.36111e-015 -4.77083e-015 -2.18227e-007 3.70423e-008 8.07887e-007 -3.97569e-016 4.77083e-015 -1.59028e-015 -0.0128109 0.00232207 8.64595e-005 -8.73191e-007 -3.58493e-006 3.23151e-006 -3.97569e-016 4.77083e-015 -1.59028e-015 -0.0160587 0.0029995 0.000861401 -6.69895e-006 -3.85958e-007 4.38285e-007 -3.97569e-016 4.77083e-015 -1.59028e-015 -0.0126323 0.00313667 0.00284072 1.11319e-014 -3.18055e-015 1.59028e-015 -3.97569e-016 4.77083e-015 -1.59028e-015 5.29669e-031 6.36111e-015 -4.77083e-015 -2.18227e-007 3.70423e-008 8.07887e-007 -4.90074 -0.832187 28.8661 -29.4013 -6.54771 -22.3182 -73.5516 -69.8706 -126.907 42.117 -1.58181 14.836 7.95139e-016 -3.18055e-015 4.77083e-015 3.18055e-015 -6.36111e-015 3.18055e-015 3.18055e-015 0 6.36111e-015 7.95139e-016 -3.18055e-015 4.77083e-015 0.0129021 0.00230037 -8.52581e-005 3.97569e-015 0 -4.77083e-015 7.95139e-016 -3.18055e-015 4.77083e-015 0.0163084 0.00302258 -0.000871472 8.82781e-032 -3.18055e-015 1.59028e-015 7.95139e-016 -3.18055e-015 4.77083e-015 0.0145943 0.00367924 -0.0032614 -2.38542e-015 -3.18055e-015 -1.59028e-015 7.95139e-016 -3.18055e-015 4.77083e-015 3.18055e-015 -6.36111e-015 3.18055e-015 3.18055e-015 0 6.36111e-015 2.6917 -17.1602 7.15933 53.4542 57.3261 -47.6461 3.07745 24.3623 -6.43996 -7.65321e-015 2.78299e-015 -4.77083e-015 3.19132 -38.1202 2.80167 -2.71275 35.273 2.02466 5.32199 4.81333 0.870402 -2.79701e-006 -6.83912e-006 2.62976e-006 
28.7431 4.40282 -30.2124 89.9996 76.9891 179.985 2.40618 1.80658 -0.572009 4.8338 3.58745 -1.22034 4.83382 3.58746 -1.22033 9.2807e-005 52.8425 -2.70972e-005 -0.0418418 -20.8387 -0.0166904 -8.03749 -7.40965 -45.2719 35.2661 -11.3234 31.3706 2.33224 -40.2512 10.5826 -9.69443 -21.938 0.0499094 -5.56597e-015 1.59028e-015 -0 -3.57812e-015 3.18055e-015 3.18055e-015 -1.98785e-015 -1.59028e-015 -0 -5.56597e-015 1.59028e-015 -0 -0.0127966 0.00231556 8.50359e-005 -1.98785e-015 -4.77083e-015 -1.59028e-015 -5.56597e-015 1.59028e-015 -0 -0.0160688 0.00299763 0.000856468 -5.1684e-015 -1.59028e-015 -6.36111e-015 -5.56597e-015 1.59028e-015 -0 -0.0126087 0.0031287 0.00283097 1.23246e-014 1.59028e-015 -4.77083e-015 -5.56597e-015 1.59028e-015 -0 -3.57812e-015 3.18055e-015 3.18055e-015 -1.98785e-015 -1.59028e-015 -0 -4.65909 -0.737635 29.075 -29.5437 -6.459 -22.4137 -71.4969 -69.5841 -124.994 42.2732 -1.29289 14.9816 -8.74653e-015 -6.36111e-015 -4.77083e-015 -5.37733e-006 -2.03931e-006 -1.44949e-006 5.37733e-006 2.03931e-006 1.44949e-006 -8.74653e-015 -6.36111e-015 -4.77083e-015 0.0129631 0.00231497 -8.55204e-005 -5.56597e-015 0 -0 -8.74653e-015 -6.36111e-015 -4.77083e-015 0.0163452 0.00303655 -0.000870867 1.51285e-005 1.86363e-006 -3.07971e-006 -8.74653e-015 -6.36111e-015 -4.77083e-015 0.0145805 0.00367731 -0.00326449 -3.18055e-015 -3.18055e-015 -1.59028e-015 -8.74653e-015 -6.36111e-015 -4.77083e-015 -5.37733e-006 -2.03931e-006 -1.44949e-006 5.37733e-006 2.03931e-006 1.44949e-006 2.33127 -17.0302 6.57879 53.4311 57.3171 -47.6336 2.4819 24.4461 -5.88795 -2.18663e-015 1.06864e-006 -0 3.19146 -38.1224 2.80162 -2.71256 35.275 2.02479 5.32167 4.81339 0.870329 1.65686e-005 -6.12278e-006 -2.65905e-006 
